<mxfile host="app.diagrams.net" agent="Mozilla/5.0 (Windows NT 10.0; Win64; x64) AppleWebKit/537.36 (KHTML, like Gecko) Chrome/138.0.0.0 Safari/537.36 Edg/138.0.0.0" version="28.0.6">
  <diagram name="第 1 页" id="2rUWdSJBzpEuFzzUvxha">
    <mxGraphModel dx="1128" dy="1505" grid="0" gridSize="10" guides="1" tooltips="1" connect="1" arrows="1" fold="1" page="0" pageScale="1" pageWidth="1200" pageHeight="1600" math="0" shadow="0">
      <root>
        <mxCell id="0" />
        <mxCell id="1" parent="0" />
        <mxCell id="_dstU7Xcy83EFVRqUr65-3" value="进入拼团结算" style="rounded=1;whiteSpace=wrap;html=1;fillColor=#d5e8d4;strokeColor=#82b366;" vertex="1" parent="1">
          <mxGeometry x="-116" y="-523" width="120" height="60" as="geometry" />
        </mxCell>
        <mxCell id="_dstU7Xcy83EFVRqUr65-4" value="进行结算规则校验&lt;div&gt;黑名单、交易单号&lt;/div&gt;&lt;div&gt;交易时间等&lt;/div&gt;" style="rhombus;whiteSpace=wrap;html=1;fillColor=#dae8fc;strokeColor=#6c8ebf;" vertex="1" parent="1">
          <mxGeometry x="-109" y="-403" width="115" height="125" as="geometry" />
        </mxCell>
        <mxCell id="_dstU7Xcy83EFVRqUr65-5" style="edgeStyle=none;curved=1;rounded=0;orthogonalLoop=1;jettySize=auto;html=1;entryX=0.504;entryY=0.056;entryDx=0;entryDy=0;entryPerimeter=0;fontSize=12;startSize=8;endSize=8;" edge="1" parent="1" source="_dstU7Xcy83EFVRqUr65-3" target="_dstU7Xcy83EFVRqUr65-4">
          <mxGeometry relative="1" as="geometry" />
        </mxCell>
        <mxCell id="_dstU7Xcy83EFVRqUr65-9" style="edgeStyle=none;curved=1;rounded=0;orthogonalLoop=1;jettySize=auto;html=1;fontSize=12;startSize=8;endSize=8;" edge="1" parent="1" source="_dstU7Xcy83EFVRqUr65-6" target="_dstU7Xcy83EFVRqUr65-7">
          <mxGeometry relative="1" as="geometry" />
        </mxCell>
        <mxCell id="_dstU7Xcy83EFVRqUr65-11" style="edgeStyle=none;curved=1;rounded=0;orthogonalLoop=1;jettySize=auto;html=1;fontSize=12;startSize=8;endSize=8;" edge="1" parent="1" source="_dstU7Xcy83EFVRqUr65-6" target="_dstU7Xcy83EFVRqUr65-10">
          <mxGeometry relative="1" as="geometry" />
        </mxCell>
        <mxCell id="_dstU7Xcy83EFVRqUr65-6" value="拼团交易结算&lt;br&gt;更新拼团订单、个人订单状态" style="rounded=1;whiteSpace=wrap;html=1;fillColor=#d5e8d4;strokeColor=#82b366;" vertex="1" parent="1">
          <mxGeometry x="-101" y="-206" width="120" height="60" as="geometry" />
        </mxCell>
        <mxCell id="_dstU7Xcy83EFVRqUr65-7" value="组队回调通知&lt;br&gt;处理失败-》定时任务补偿" style="rounded=1;whiteSpace=wrap;html=1;fillColor=#d5e8d4;strokeColor=#82b366;" vertex="1" parent="1">
          <mxGeometry x="-99" y="-74" width="120" height="60" as="geometry" />
        </mxCell>
        <mxCell id="_dstU7Xcy83EFVRqUr65-8" style="edgeStyle=none;curved=1;rounded=0;orthogonalLoop=1;jettySize=auto;html=1;entryX=0.442;entryY=0.067;entryDx=0;entryDy=0;entryPerimeter=0;fontSize=12;startSize=8;endSize=8;" edge="1" parent="1" source="_dstU7Xcy83EFVRqUr65-4" target="_dstU7Xcy83EFVRqUr65-6">
          <mxGeometry relative="1" as="geometry" />
        </mxCell>
        <mxCell id="_dstU7Xcy83EFVRqUr65-13" style="edgeStyle=none;curved=1;rounded=0;orthogonalLoop=1;jettySize=auto;html=1;fontSize=12;startSize=8;endSize=8;" edge="1" parent="1" source="_dstU7Xcy83EFVRqUr65-10" target="_dstU7Xcy83EFVRqUr65-12">
          <mxGeometry relative="1" as="geometry" />
        </mxCell>
        <mxCell id="_dstU7Xcy83EFVRqUr65-10" value="最后一单，成团结算&lt;div&gt;&lt;br&gt;&lt;/div&gt;" style="ellipse;whiteSpace=wrap;html=1;fillColor=#e1d5e7;strokeColor=#9673a6;" vertex="1" parent="1">
          <mxGeometry x="86" y="-212" width="114" height="76" as="geometry" />
        </mxCell>
        <mxCell id="_dstU7Xcy83EFVRqUr65-14" style="edgeStyle=none;curved=1;rounded=0;orthogonalLoop=1;jettySize=auto;html=1;fontSize=12;startSize=8;endSize=8;" edge="1" parent="1" source="_dstU7Xcy83EFVRqUr65-12" target="_dstU7Xcy83EFVRqUr65-7">
          <mxGeometry relative="1" as="geometry" />
        </mxCell>
        <mxCell id="_dstU7Xcy83EFVRqUr65-15" value="第一次执行" style="edgeLabel;html=1;align=center;verticalAlign=middle;resizable=0;points=[];fontSize=12;" vertex="1" connectable="0" parent="_dstU7Xcy83EFVRqUr65-14">
          <mxGeometry x="-0.0122" y="-3" relative="1" as="geometry">
            <mxPoint as="offset" />
          </mxGeometry>
        </mxCell>
        <mxCell id="_dstU7Xcy83EFVRqUr65-12" value="写入通知任务&lt;br&gt;给团队每个用户给予通知" style="rounded=1;whiteSpace=wrap;html=1;fillColor=#f8cecc;strokeColor=#b85450;" vertex="1" parent="1">
          <mxGeometry x="191" y="-77" width="120" height="60" as="geometry" />
        </mxCell>
        <mxCell id="_dstU7Xcy83EFVRqUr65-16" value="定时任务&lt;div&gt;扫描未执行、重试任务&lt;/div&gt;" style="shape=process;whiteSpace=wrap;html=1;backgroundOutline=1;fillColor=#f8cecc;strokeColor=#b85450;" vertex="1" parent="1">
          <mxGeometry x="-105" y="58" width="120" height="60" as="geometry" />
        </mxCell>
        <mxCell id="_dstU7Xcy83EFVRqUr65-17" style="edgeStyle=none;curved=1;rounded=0;orthogonalLoop=1;jettySize=auto;html=1;entryX=0.45;entryY=1.017;entryDx=0;entryDy=0;entryPerimeter=0;fontSize=12;startSize=8;endSize=8;" edge="1" parent="1" source="_dstU7Xcy83EFVRqUr65-16" target="_dstU7Xcy83EFVRqUr65-7">
          <mxGeometry relative="1" as="geometry" />
        </mxCell>
      </root>
    </mxGraphModel>
  </diagram>
</mxfile>
